<?xml version="1.0" encoding="UTF-8" standalone="no"?>
<!DOCTYPE svg PUBLIC "-//W3C//DTD SVG 1.1//EN"
 "http://www.w3.org/Graphics/SVG/1.1/DTD/svg11.dtd">
<!-- Generated by graphviz version 2.38.0 (20140413.2041)
 -->
<!-- Title: tinybgfx_helloworld Pages: 1 -->
<svg width="514pt" height="191pt"
 viewBox="0.00 0.00 514.00 191.00" xmlns="http://www.w3.org/2000/svg" xmlns:xlink="http://www.w3.org/1999/xlink">
<g id="graph0" class="graph" transform="scale(1 1) rotate(0) translate(4 187)">
<title>tinybgfx_helloworld</title>
<polygon fill="white" stroke="none" points="-4,4 -4,-187 510,-187 510,4 -4,4"/>
<!-- Hello -->
<g id="node1" class="node"><title>Hello</title>
<polygon fill="none" stroke="black" points="340,-0.5 340,-36.5 394,-36.5 394,-0.5 340,-0.5"/>
<text text-anchor="middle" x="367" y="-14.8" font-family="Times New Roman,serif" font-size="14.00">Hello</text>
</g>
<!-- Renderer -->
<g id="node2" class="node"><title>Renderer</title>
<polygon fill="none" stroke="black" points="253,-73.5 253,-109.5 321,-109.5 321,-73.5 253,-73.5"/>
<text text-anchor="middle" x="287" y="-87.8" font-family="Times New Roman,serif" font-size="14.00">Renderer</text>
</g>
<!-- Hello&#45;&gt;Renderer -->
<g id="edge1" class="edge"><title>Hello&#45;&gt;Renderer</title>
<path fill="none" stroke="black" d="M347.634,-36.6871C337.513,-45.6698 324.964,-56.8067 313.913,-66.6144"/>
<polygon fill="black" stroke="black" points="311.343,-64.2155 306.187,-73.4712 315.99,-69.451 311.343,-64.2155"/>
</g>
<!-- ImagePharse -->
<g id="node8" class="node"><title>ImagePharse</title>
<polygon fill="none" stroke="black" points="403,-73.5 403,-109.5 491,-109.5 491,-73.5 403,-73.5"/>
<text text-anchor="middle" x="447" y="-87.8" font-family="Times New Roman,serif" font-size="14.00">ImagePharse</text>
</g>
<!-- Hello&#45;&gt;ImagePharse -->
<g id="edge7" class="edge"><title>Hello&#45;&gt;ImagePharse</title>
<path fill="none" stroke="black" d="M386.366,-36.6871C396.487,-45.6698 409.036,-56.8067 420.087,-66.6144"/>
<polygon fill="black" stroke="black" points="418.01,-69.451 427.813,-73.4712 422.657,-64.2155 418.01,-69.451"/>
</g>
<!-- debug_renderdoc -->
<g id="node3" class="node"><title>debug_renderdoc</title>
<polygon fill="none" stroke="black" points="0,-146.5 0,-182.5 116,-182.5 116,-146.5 0,-146.5"/>
<text text-anchor="middle" x="58" y="-160.8" font-family="Times New Roman,serif" font-size="14.00">debug_renderdoc</text>
</g>
<!-- Renderer&#45;&gt;debug_renderdoc -->
<g id="edge2" class="edge"><title>Renderer&#45;&gt;debug_renderdoc</title>
<path fill="none" stroke="black" d="M252.716,-103.129C218.453,-113.753 164.93,-130.347 122.664,-143.451"/>
<polygon fill="black" stroke="black" points="121.521,-140.141 113.006,-146.446 123.594,-146.827 121.521,-140.141"/>
</g>
<!-- glcontext -->
<g id="node4" class="node"><title>glcontext</title>
<polygon fill="none" stroke="black" points="134,-146.5 134,-182.5 202,-182.5 202,-146.5 134,-146.5"/>
<text text-anchor="middle" x="168" y="-160.8" font-family="Times New Roman,serif" font-size="14.00">glcontext</text>
</g>
<!-- Renderer&#45;&gt;glcontext -->
<g id="edge3" class="edge"><title>Renderer&#45;&gt;glcontext</title>
<path fill="none" stroke="black" d="M258.497,-109.506C242.57,-119.009 222.533,-130.964 205.363,-141.208"/>
<polygon fill="black" stroke="black" points="203.478,-138.257 196.683,-146.386 207.064,-144.268 203.478,-138.257"/>
</g>
<!-- glimports -->
<g id="node5" class="node"><title>glimports</title>
<polygon fill="none" stroke="black" points="220.5,-146.5 220.5,-182.5 289.5,-182.5 289.5,-146.5 220.5,-146.5"/>
<text text-anchor="middle" x="255" y="-160.8" font-family="Times New Roman,serif" font-size="14.00">glimports</text>
</g>
<!-- Renderer&#45;&gt;glimports -->
<g id="edge4" class="edge"><title>Renderer&#45;&gt;glimports</title>
<path fill="none" stroke="black" d="M279.254,-109.687C275.52,-117.972 270.96,-128.09 266.805,-137.307"/>
<polygon fill="black" stroke="black" points="263.593,-135.916 262.675,-146.471 269.975,-138.793 263.593,-135.916"/>
</g>
<!-- nvapi -->
<g id="node6" class="node"><title>nvapi</title>
<polygon fill="none" stroke="black" points="308,-146.5 308,-182.5 362,-182.5 362,-146.5 308,-146.5"/>
<text text-anchor="middle" x="335" y="-160.8" font-family="Times New Roman,serif" font-size="14.00">nvapi</text>
</g>
<!-- Renderer&#45;&gt;nvapi -->
<g id="edge5" class="edge"><title>Renderer&#45;&gt;nvapi</title>
<path fill="none" stroke="black" d="M298.619,-109.687C304.397,-118.234 311.494,-128.731 317.88,-138.177"/>
<polygon fill="black" stroke="black" points="314.987,-140.147 323.488,-146.471 320.786,-136.226 314.987,-140.147"/>
</g>
<!-- dxgi -->
<g id="node7" class="node"><title>dxgi</title>
<polygon fill="none" stroke="black" points="380,-146.5 380,-182.5 434,-182.5 434,-146.5 380,-146.5"/>
<text text-anchor="middle" x="407" y="-160.8" font-family="Times New Roman,serif" font-size="14.00">dxgi</text>
</g>
<!-- Renderer&#45;&gt;dxgi -->
<g id="edge6" class="edge"><title>Renderer&#45;&gt;dxgi</title>
<path fill="none" stroke="black" d="M315.743,-109.506C332.276,-119.288 353.201,-131.669 370.843,-142.107"/>
<polygon fill="black" stroke="black" points="369.339,-145.284 379.728,-147.364 372.904,-139.26 369.339,-145.284"/>
</g>
<!-- rng -->
<g id="node9" class="node"><title>rng</title>
<polygon fill="none" stroke="black" points="452,-146.5 452,-182.5 506,-182.5 506,-146.5 452,-146.5"/>
<text text-anchor="middle" x="479" y="-160.8" font-family="Times New Roman,serif" font-size="14.00">rng</text>
</g>
<!-- ImagePharse&#45;&gt;rng -->
<g id="edge8" class="edge"><title>ImagePharse&#45;&gt;rng</title>
<path fill="none" stroke="black" d="M454.746,-109.687C458.48,-117.972 463.04,-128.09 467.195,-137.307"/>
<polygon fill="black" stroke="black" points="464.025,-138.793 471.325,-146.471 470.407,-135.916 464.025,-138.793"/>
</g>
</g>
</svg>
